<svg width="139" height="20" viewBox="0 0 139 20" fill="none" xmlns="http://www.w3.org/2000/svg">
<g clip-path="url(#clip0_229_1171)">
<path d="M33.207 20C39.3011 20 43.8189 15.1325 43.8189 10.0529C43.8189 4.40322 38.972 0 32.76 0C25.7483 0 22.5636 4.98132 22.0303 8.6851C22.0303 8.6851 20.9913 8.6851 19.5178 8.6851C16.5026 8.6851 16.3115 8.6851 13.2351 8.6851V11.528H18.1441C17.7493 14.1894 14.8987 16.4888 11.7721 16.775C8.15591 17.106 4.89991 15.3225 3.71792 12.3628C2.51887 9.36047 3.77762 6.08789 6.80234 4.39369C8.3009 3.55436 9.95047 3.26356 11.7189 3.41949C14.3553 3.65163 16.183 4.96929 17.6224 6.85753C18.5435 6.32305 19.3733 5.84171 20.1966 5.36439C17.9505 2.23219 14.7447 0.678382 10.7166 0.682895C6.16619 0.687909 2.05781 3.2776 0.573297 7.07664C-0.921753 10.9028 0.573297 15.1736 4.26025 17.6044C10.4978 21.7173 19.3954 19.0298 21.3946 12.442C21.4458 12.2726 21.6254 11.529 21.6254 11.529H28.5809V13.4954C31.4421 11.887 31.5364 11.8399 34.5069 10.099C31.6538 8.38326 31.4892 8.289 28.5809 6.65447V8.6846C27.0111 8.6846 26.7512 8.66505 25.2537 8.66505C25.5361 6.50154 28.0852 3.18584 32.6732 3.18584C38.0383 3.18584 40.6186 6.8816 40.6186 9.9115C40.6186 13.9327 36.9948 16.8723 33.0104 16.8723C27.6061 16.8723 25.7945 12.8692 25.7945 12.8692C25.5306 12.8747 23.2158 12.8667 22.387 12.8667C22.387 12.8667 24.3827 20 33.2065 20H33.207Z" fill="url(#paint0_linear_229_1171)"/>
<path d="M136.952 9.23645C136.598 9.23645 136.254 9.1452 135.931 8.9652C135.61 8.7852 135.355 8.53049 135.175 8.2091C134.995 7.88721 134.904 7.54426 134.904 7.18927C134.904 6.83429 134.997 6.48682 135.181 6.15991C135.364 5.83401 135.62 5.5798 135.941 5.40532C136.263 5.23084 136.603 5.14209 136.953 5.14209C137.302 5.14209 137.643 5.23084 137.964 5.40532C138.285 5.5798 138.54 5.83401 138.724 6.15991C138.908 6.48632 139.001 6.83278 139.001 7.18927C139.001 7.54576 138.91 7.88671 138.73 8.2091C138.55 8.53049 138.295 8.7852 137.973 8.9652C137.651 9.1452 137.307 9.23645 136.953 9.23645M136.955 5.50109C136.668 5.50109 136.388 5.57379 136.124 5.71719C135.86 5.86109 135.649 6.07067 135.497 6.33991C135.346 6.60866 135.269 6.89445 135.269 7.18927C135.269 7.48409 135.343 7.76487 135.492 8.0301C135.64 8.29584 135.851 8.50643 136.116 8.65534C136.382 8.80475 136.664 8.87996 136.955 8.87996C137.246 8.87996 137.531 8.80425 137.796 8.65534C138.06 8.50643 138.27 8.29584 138.42 8.0301C138.569 7.76487 138.644 7.48158 138.644 7.18927C138.644 6.89696 138.568 6.60866 138.416 6.33991C138.264 6.07067 138.052 5.86109 137.788 5.71719C137.523 5.57379 137.243 5.50109 136.956 5.50109M137.395 8.27428L137.218 7.93033C137.091 7.68515 136.987 7.53473 136.903 7.47005C136.817 7.40437 136.709 7.37178 136.58 7.37178H136.441V8.27428H136.041V6.12331H136.464C136.879 6.12331 137.115 6.12482 137.165 6.12883C137.308 6.14086 137.421 6.16944 137.5 6.21356C137.578 6.25718 137.644 6.32537 137.697 6.41562C137.749 6.50638 137.776 6.60816 137.776 6.71897C137.776 6.87089 137.726 7.00225 137.627 7.11005C137.527 7.21785 137.385 7.28604 137.204 7.31211L137.114 7.32515L137.199 7.35724C137.263 7.38181 137.312 7.40838 137.346 7.43596C137.381 7.46453 137.429 7.51969 137.491 7.60091C137.507 7.62147 137.561 7.71072 137.652 7.86615L137.891 8.27428H137.394H137.395ZM136.441 7.07195H136.645C136.908 7.07195 137.067 7.06192 137.132 7.04136C137.199 7.0198 137.253 6.9822 137.291 6.92855C137.33 6.8754 137.35 6.81373 137.35 6.74604C137.35 6.67835 137.331 6.62019 137.293 6.56855C137.255 6.51741 137.201 6.4798 137.131 6.45774C137.063 6.43618 136.904 6.42515 136.645 6.42515H136.441V7.07195Z" fill="#2F2F2E"/>
<path d="M57.767 14.6028V11.1828C57.767 10.9121 57.9025 10.7762 58.1739 10.7762H58.9505C59.0614 10.7762 59.1602 10.8103 59.2465 10.878C59.3328 10.9457 59.376 11.0475 59.376 11.1833V15.2872C59.376 15.3489 59.3574 15.4136 59.3203 15.4813C59.2837 15.549 59.2154 15.6141 59.1171 15.6753L59.0805 15.7124C58.5005 16.1436 57.8563 16.4735 57.1474 16.7012C56.438 16.9288 55.677 17.0431 54.8632 17.0431C53.8889 17.0431 52.9733 16.8581 52.1164 16.4886C51.259 16.119 50.513 15.6171 49.8784 14.9819C49.2432 14.3476 48.741 13.6021 48.3708 12.7452C48.001 11.8888 47.8159 10.9738 47.8159 10.0001C47.8159 9.02636 48.001 8.11182 48.3708 7.25494C48.7405 6.39857 49.2462 5.64999 49.8874 5.00921C50.5286 4.36843 51.2776 3.86353 52.1345 3.4935C52.9914 3.12398 53.907 2.93896 54.8813 2.93896C55.7567 2.93896 56.6016 3.09941 57.4153 3.4193C57.5759 3.48147 57.7635 3.56119 57.9797 3.65946C58.1955 3.75824 58.4022 3.86303 58.5993 3.97384C58.7965 4.08464 58.9626 4.20498 59.0985 4.33434C59.234 4.4637 59.3017 4.58353 59.3017 4.69484C59.3017 4.76854 59.2832 4.83673 59.246 4.8984L58.8392 5.56375C58.7529 5.71166 58.6475 5.78587 58.5246 5.78587C58.4017 5.78587 58.2843 5.73673 58.1729 5.63795C57.7164 5.31757 57.2076 5.05885 56.6467 4.8613C56.0858 4.66425 55.5029 4.56548 54.8993 4.56548C54.0976 4.56548 53.3606 4.7164 52.6889 5.01823C52.0166 5.32007 51.4402 5.72369 50.9595 6.22909C50.4789 6.7345 50.1026 7.3136 49.8312 7.96642C49.5598 8.61973 49.4244 9.30413 49.4244 10.0186C49.4244 10.7707 49.5693 11.4757 49.8593 12.135C50.1488 12.7943 50.5436 13.3704 51.0428 13.8633C51.542 14.3561 52.1215 14.7412 52.7817 15.0185C53.4409 15.2958 54.1408 15.4341 54.8808 15.4341C55.5219 15.4341 56.0954 15.3449 56.6011 15.1659C57.1068 14.9874 57.4951 14.7994 57.7665 14.6023L57.767 14.6028Z" fill="black"/>
<path d="M60.5967 12.3288C60.5967 11.676 60.7201 11.0593 60.9664 10.4802C61.2133 9.90107 61.5489 9.39617 61.9743 8.96447C62.3998 8.53328 62.902 8.19434 63.4819 7.94765C64.0614 7.70147 64.678 7.57812 65.3317 7.57812C65.9854 7.57812 66.602 7.70147 67.1814 7.94765C67.7609 8.19434 68.2666 8.53328 68.698 8.96447C69.1295 9.39567 69.4686 9.90107 69.7155 10.4802C69.9618 11.0598 70.0852 11.676 70.0852 12.3288C70.0852 12.9816 69.9618 13.5983 69.7155 14.1774C69.4686 14.7565 69.1295 15.2589 68.698 15.6841C68.2666 16.1093 67.7609 16.4452 67.1814 16.6914C66.602 16.9376 65.9854 17.0609 65.3317 17.0609C64.678 17.0609 64.0614 16.9376 63.4819 16.6914C62.902 16.4447 62.3998 16.1093 61.9743 15.6841C61.5489 15.2589 61.2128 14.7565 60.9664 14.1774C60.7196 13.5983 60.5967 12.9821 60.5967 12.3288V12.3288ZM62.0952 12.3288C62.0952 12.7725 62.1815 13.1912 62.3541 13.5858C62.5267 13.9804 62.758 14.3253 63.048 14.6212C63.3374 14.917 63.6796 15.1511 64.0744 15.3236C64.4688 15.4961 64.8882 15.5828 65.3322 15.5828C65.7762 15.5828 66.1951 15.4966 66.5899 15.3236C66.9843 15.1511 67.3299 14.917 67.6259 14.6212C67.9214 14.3253 68.1557 13.9804 68.3288 13.5858C68.5014 13.1917 68.5877 12.7725 68.5877 12.3288C68.5877 11.8851 68.5014 11.4664 68.3288 11.0718C68.1562 10.6777 67.9219 10.3298 67.6259 10.0274C67.3299 9.72558 66.9848 9.48843 66.5899 9.31545C66.1951 9.14297 65.7762 9.05673 65.3322 9.05673C64.8882 9.05673 64.4693 9.14297 64.0744 9.31545C63.6796 9.48843 63.3374 9.72558 63.048 10.0274C62.758 10.3293 62.5267 10.6772 62.3541 11.0718C62.1815 11.4664 62.0952 11.8851 62.0952 12.3288V12.3288Z" fill="black"/>
<path d="M82.496 4.3248C82.656 4.42357 82.7363 4.52836 82.7363 4.63917C82.7363 4.70134 82.7208 4.7595 82.6902 4.81516C82.659 4.87081 82.6315 4.91694 82.6069 4.95354L82.2186 5.56374C82.1077 5.71165 82.0028 5.78585 81.904 5.78585C81.8669 5.77382 81.8207 5.75828 81.765 5.73972C81.7093 5.72117 81.6451 5.68758 81.5709 5.63794C81.1023 5.30502 80.5906 5.04329 80.0357 4.85226C79.4808 4.66123 78.9194 4.56597 78.3525 4.56597C77.5388 4.56597 76.7957 4.71388 76.1235 5.0097C75.4512 5.30552 74.8717 5.70312 74.3851 6.20201C73.898 6.70089 73.5187 7.2805 73.2478 7.93983C72.9763 8.59916 72.8409 9.29258 72.8409 10.0191C72.8409 10.7832 72.9919 11.4977 73.2939 12.1635C73.5959 12.8289 73.9998 13.405 74.5055 13.8918C75.0107 14.3792 75.5937 14.7608 76.2529 15.038C76.9126 15.3153 77.6 15.4537 78.3154 15.4537C78.784 15.4537 79.246 15.392 79.7026 15.2687C80.1586 15.1458 80.6643 14.9177 81.2192 14.5848C81.3421 14.5231 81.4655 14.4404 81.5889 14.3356C81.7118 14.2308 81.8167 14.1786 81.9035 14.1786C82.0144 14.1786 82.1192 14.2523 82.2181 14.4003L82.6435 15.1027C82.6806 15.1889 82.6992 15.2752 82.6992 15.3614C82.6992 15.4968 82.6315 15.6016 82.496 15.6758C81.904 16.107 81.2563 16.4429 80.5539 16.6831C79.8511 16.9233 79.0925 17.0436 78.2788 17.0436C77.3045 17.0436 76.3889 16.8586 75.532 16.4891C74.6746 16.1195 73.9286 15.6176 73.2939 14.9824C72.6588 14.3481 72.1566 13.6025 71.7863 12.7457C71.4166 11.8893 71.2314 10.9742 71.2314 10.0005C71.2314 9.02685 71.4166 8.11231 71.7863 7.25543C72.1561 6.39905 72.6618 5.65048 73.3029 5.0097C73.9441 4.36892 74.6931 3.86402 75.55 3.49399C76.4069 3.12447 77.3225 2.93945 78.2968 2.93945C79.0739 2.93945 79.8164 3.05929 80.5258 3.29995C81.2347 3.54012 81.8915 3.88207 82.496 4.3258V4.3248Z" fill="black"/>
<path d="M85.899 3.52866L85.9025 9.0219C86.0505 8.85143 86.2422 8.68096 86.4769 8.51048C86.7112 8.34001 86.9711 8.18759 87.2556 8.05372C87.54 7.91934 87.8365 7.81004 88.1451 7.7243C88.4541 7.63907 88.7446 7.59645 89.017 7.59645C89.5483 7.59645 90.0299 7.69823 90.4629 7.90179C90.8954 8.10486 91.2631 8.37962 91.5656 8.72458C91.8687 9.06953 92.0999 9.47666 92.261 9.94446C92.4215 10.4128 92.5018 10.9182 92.5018 11.4602V16.3773C92.5018 16.5252 92.4582 16.6395 92.3709 16.7198C92.2836 16.8 92.1772 16.8396 92.0523 16.8396H91.2852C91.1106 16.8396 90.9982 16.8025 90.9485 16.7283C90.8984 16.6546 90.8733 16.5433 90.8733 16.3949V11.4471C90.8733 11.1388 90.8332 10.845 90.7534 10.5672C90.6731 10.2894 90.5467 10.0483 90.3741 9.84469C90.2015 9.64062 89.9763 9.47717 89.6993 9.35332C89.4219 9.22948 89.0858 9.16781 88.6914 9.16781C88.3954 9.16781 88.0869 9.22346 87.7668 9.33477C87.4457 9.44608 87.1532 9.60051 86.8883 9.79806C86.6229 9.9956 86.3982 10.2272 86.2131 10.4925C86.0279 10.7582 85.9231 11.0455 85.8985 11.3544V16.4315C85.8985 16.7032 85.763 16.8391 85.4916 16.8391H84.7331C84.4491 16.8391 84.3076 16.7037 84.3076 16.4325V3.53016C84.3076 3.25941 84.4431 3.12354 84.7145 3.12354H85.4726C85.596 3.12354 85.6973 3.16014 85.7781 3.23384C85.8579 3.30805 85.898 3.40632 85.898 3.52866H85.899Z" fill="black"/>
<path d="M98.2729 17.0609C97.6689 17.0609 97.1015 16.9376 96.5717 16.6914C96.0414 16.4447 95.5788 16.1093 95.1845 15.6841C94.7897 15.2589 94.4786 14.7565 94.2504 14.1774C94.0221 13.5983 93.9082 12.9821 93.9082 12.3288C93.9082 11.6755 94.0221 11.0593 94.2504 10.4802C94.4781 9.90107 94.7897 9.39617 95.1845 8.96447C95.5788 8.53328 96.0414 8.19434 96.5717 7.94765C97.1015 7.70147 97.6689 7.57812 98.2729 7.57812C98.8399 7.57812 99.3737 7.69244 99.8729 7.92007C100.372 8.14821 100.81 8.45957 101.186 8.85366C101.562 9.24826 101.861 9.71004 102.083 10.24C102.305 10.77 102.416 11.3371 102.416 11.9402V12.1623C102.416 12.5319 102.299 12.766 102.064 12.8648C101.83 12.9636 101.547 13.0127 101.213 13.0127H95.5352C95.6461 13.7467 95.9571 14.3429 96.4689 14.8017C96.9806 15.2604 97.5816 15.4896 98.2724 15.4896C98.6422 15.4896 99.0155 15.4219 99.3917 15.2865C99.7675 15.1511 100.104 14.9601 100.4 14.7134C100.486 14.6272 100.597 14.5841 100.732 14.5841C100.819 14.5841 100.886 14.6212 100.936 14.6949L101.454 15.4715C101.503 15.5212 101.527 15.5773 101.527 15.6395C101.515 15.7267 101.475 15.8014 101.408 15.8636C101.34 15.9263 101.275 15.9759 101.213 16.0135C100.794 16.3003 100.344 16.547 99.8633 16.7526C99.3822 16.9577 98.8519 17.0609 98.2724 17.0609H98.2729ZM95.6095 11.6444H100.844C100.782 11.302 100.671 10.9776 100.511 10.6722C100.35 10.3664 100.153 10.1006 99.919 9.874C99.6847 9.64737 99.4223 9.46988 99.1329 9.34152C98.8429 9.21316 98.5439 9.14898 98.2358 9.14898C97.9278 9.14898 97.6127 9.21316 97.3293 9.34152C97.0453 9.46988 96.7894 9.64737 96.5617 9.874C96.3334 10.1006 96.1362 10.3664 95.9697 10.6722C95.8036 10.9781 95.6832 11.302 95.6089 11.6444H95.6095Z" fill="black"/>
<path d="M107.743 15.5823C108.113 15.5823 108.489 15.5051 108.871 15.3512C109.253 15.1973 109.586 14.9972 109.87 14.7505C109.981 14.6643 110.092 14.6212 110.203 14.6212C110.301 14.6212 110.37 14.6578 110.406 14.732L110.943 15.4896C110.979 15.5387 110.998 15.5944 110.998 15.656C110.998 15.7423 110.961 15.8165 110.887 15.8777C110.814 15.9398 110.745 15.9885 110.684 16.0256C110.277 16.3094 109.827 16.5525 109.334 16.7556C108.841 16.9587 108.311 17.0609 107.743 17.0609C107.09 17.0609 106.473 16.9376 105.894 16.6914C105.314 16.4447 104.811 16.1093 104.386 15.6841C103.961 15.2589 103.624 14.7565 103.378 14.1774C103.131 13.5983 103.008 12.9821 103.008 12.3288C103.008 11.6755 103.131 11.0593 103.378 10.4802C103.624 9.90107 103.961 9.39617 104.386 8.96447C104.811 8.53328 105.314 8.19434 105.894 7.94765C106.473 7.70147 107.09 7.57812 107.743 7.57812C108.236 7.57812 108.714 7.65183 109.177 7.80024C109.639 7.94815 110.11 8.19484 110.591 8.53979C110.789 8.67517 110.887 8.79851 110.887 8.90932C110.887 8.93439 110.884 8.96798 110.878 9.0111C110.872 9.05422 110.856 9.08832 110.832 9.11288L110.333 9.90759V9.88904C110.283 9.96274 110.203 9.99985 110.092 9.99985C110.018 9.99985 109.92 9.95071 109.796 9.85193C109.512 9.63032 109.198 9.4423 108.853 9.28837C108.508 9.13444 108.138 9.05723 107.743 9.05723C107.299 9.05723 106.88 9.14347 106.486 9.31595C106.091 9.48893 105.746 9.72609 105.45 10.0279C105.154 10.3298 104.919 10.6777 104.747 11.0723C104.574 11.4669 104.488 11.8856 104.488 12.3293C104.488 12.773 104.574 13.1917 104.747 13.5863C104.919 13.9809 105.154 14.3258 105.45 14.6217C105.746 14.9175 106.091 15.1516 106.486 15.3241C106.88 15.4966 107.3 15.5833 107.743 15.5833L107.743 15.5823Z" fill="black"/>
<path d="M112.589 16.4325V3.53015C112.589 3.41934 112.623 3.32408 112.691 3.24386C112.758 3.16363 112.86 3.12402 112.996 3.12402H113.754C113.865 3.12402 113.964 3.16062 114.05 3.23483C114.136 3.30904 114.179 3.40781 114.179 3.53065V11.3679L117.379 8.02212C117.453 7.94841 117.524 7.88674 117.592 7.8371C117.659 7.78797 117.755 7.7634 117.878 7.7634H119.173C119.358 7.7634 119.451 7.83108 119.451 7.96646C119.451 8.04067 119.441 8.09281 119.423 8.1239C119.404 8.15498 119.364 8.20663 119.303 8.28083L116.473 11.1643L120.727 16.3402C120.838 16.451 120.893 16.5498 120.893 16.636C120.893 16.7714 120.789 16.8391 120.579 16.8391H119.303C119.217 16.8391 119.127 16.8145 119.035 16.7654C118.942 16.7162 118.859 16.642 118.785 16.5433L115.363 12.292L114.179 13.5118V16.4325C114.179 16.7037 114.037 16.8391 113.754 16.8391H112.996C112.724 16.8391 112.589 16.7037 112.589 16.4325V16.4325Z" fill="black"/>
<path d="M121.245 5.22112C121.245 4.90374 121.359 4.63149 121.587 4.40536C121.815 4.17923 122.09 4.06592 122.411 4.06592C122.731 4.06592 123.021 4.17923 123.243 4.40536C123.465 4.63149 123.575 4.90374 123.575 5.22112C123.575 5.5385 123.465 5.80775 123.243 6.02786C123.021 6.24797 122.744 6.35778 122.411 6.35778C122.077 6.35778 121.816 6.24797 121.587 6.02786C121.359 5.80775 121.245 5.53901 121.245 5.22112ZM123.206 8.16981V16.4322C123.206 16.7035 123.07 16.8389 122.799 16.8389H122.022C121.75 16.8389 121.615 16.7035 121.615 16.4322V8.16981C121.615 7.89905 121.75 7.76318 122.022 7.76318H122.799C123.07 7.76318 123.206 7.89905 123.206 8.16981Z" fill="black"/>
<path d="M127.089 8.18984L127.145 9.02165C127.294 8.85117 127.485 8.6807 127.72 8.51023C127.954 8.33976 128.215 8.18733 128.499 8.05346C128.784 7.91909 129.08 7.80978 129.389 7.72405C129.699 7.63881 129.989 7.59619 130.261 7.59619C130.792 7.59619 131.275 7.69797 131.708 7.90154C132.14 8.1046 132.509 8.37936 132.811 8.72432C133.114 9.06928 133.346 9.47641 133.507 9.94421C133.667 10.4125 133.748 10.9179 133.748 11.4599V16.3771C133.748 16.525 133.704 16.6393 133.617 16.7195C133.53 16.7997 133.423 16.8393 133.298 16.8393H132.531C132.357 16.8393 132.244 16.8022 132.195 16.728C132.144 16.6543 132.119 16.543 132.119 16.3946V11.4469C132.119 11.1385 132.067 10.8447 131.962 10.5669C131.858 10.2892 131.707 10.048 131.509 9.84443C131.312 9.64036 131.075 9.47691 130.797 9.35307C130.52 9.22922 130.202 9.16755 129.845 9.16755C129.537 9.16755 129.222 9.22321 128.902 9.33452C128.58 9.44582 128.291 9.59373 128.032 9.77875C127.773 9.96426 127.56 10.1743 127.394 10.4085C127.227 10.6436 127.144 10.8843 127.144 11.131V16.4307C127.144 16.7025 127.009 16.8383 126.737 16.8383H125.979C125.695 16.8383 125.553 16.7025 125.553 16.4307V8.18984C125.553 8.05446 125.593 7.95268 125.674 7.88499C125.753 7.81731 125.849 7.78321 125.96 7.78321H126.663C126.922 7.78321 127.064 7.91859 127.088 8.18984H127.089Z" fill="black"/>
</g>
<defs>
<linearGradient id="paint0_linear_229_1171" x1="-0.000140225" y1="10.0003" x2="43.8189" y2="10.0003" gradientUnits="userSpaceOnUse">
<stop stop-color="#1A6FB3"/>
<stop offset="1" stop-color="#1D3868"/>
</linearGradient>
<clipPath id="clip0_229_1171">
<rect width="139" height="20" fill="white"/>
</clipPath>
</defs>
</svg>
